# AST/ASF file generated using VICON BodyLanguage
# -----------------------------------------------
:version 1.10
:name VICON
:units
  mass 1.0
  length 0.45
  angle deg
:documentation
   .ast/.asf automatically generated from VICON data using
   VICON BodyBuilder and BodyLanguage model FoxedUp or BRILLIANT.MOD
:root
   order TX TY TZ RX RY RZ
   axis XYZ
   position 0 0 0  
   orientation 0 0 0 
:bonedata
  begin
     id 1 
     name lhipjoint
     direction 0.624716 -0.669793 0.401383 
     length 2.38238 
     axis 0 0 0  XYZ
  end
  begin
     id 2 
     name lfemur
     direction 0.34202 -0.939693 0  
     length 6.4574  
     axis 0 0 20  XYZ
    dof rx ry rz
    limits (-160.0 20.0)
           (-70.0 70.0)
           (-60.0 70.0)
  end
  begin
     id 3 
     name ltibia
     direction 0.34202 -0.939693 0   
     length 7.68739   
     axis 0 0 20   XYZ
    dof rx
    limits (-10.0 170.0)
  end
  begin
     id 4 
     name lfoot
     direction 0.0681309 -0.187188 0.979959   
     length 2.46615   
     axis -90 7.62852e-016 20   XYZ
    dof rx rz
    limits (-45.0 90.0)
           (-70.0 20.0)
  end
  begin
     id 5 
     name ltoes
     direction 1.53566e-011 -4.21819e-011 1   
     length 1.2376   
     axis -90 7.62852e-016 20   XYZ
    dof rx
    limits (-90.0 20.0)
  end
  begin
     id 6 
     name rhipjoint
     direction -0.644473 -0.655875 0.393043   
     length 2.43293  
     axis 0 0 0  XYZ 
  end
  begin
     id 7 
     name rfemur
     direction -0.34202 -0.939693 0   
     length 6.7025   
     axis 0 0 -20   XYZ
    dof rx ry rz
    limits (-160.0 20.0)
           (-70.0 70.0)
           (-70.0 60.0)
  end
  begin
     id 8 
     name rtibia
     direction -0.34202 -0.939693 0   
     length 7.80547   
     axis 0 0 -20   XYZ
    dof rx
    limits (-10.0 170.0)
 end
 begin
     id 9 
     name rfoot
     direction -0.0756734 -0.207911 0.975216   
     length 2.40315  
     axis -90 -7.62852e-016 -20   XYZ
    dof rx rz
    limits (-45.0 90.0)
           (-20.0 70.0)
  end
  begin
     id 10 
     name rtoes
     direction -1.5353e-011 -4.21879e-011 1   
     length 1.20477   
     axis -90 -7.62852e-016 -20   XYZ
    dof rx
    limits (-90.0 20.0)
  end
  begin
     id 11 
     name lowerback
     direction 0.0160353 0.987463 -0.157037   
     length 2.18572   
     axis 0 0 0   XYZ
    dof rx ry rz
    limits (-20.0 45.0)
           (-30.0 30.0)
           (-30.0 30.0)
  end
  begin
     id 12 
     name upperback
     direction -0.00499661 0.999756 0.0215076   
     length 2.18016   
     axis 0 0 0   XYZ
    dof rx ry rz
    limits (-20.0 45.0)
           (-30.0 30.0)
           (-30.0 30.0)
  end
  begin
     id 13 
     name thorax
     direction -0.00921346 0.995333 0.0960619   
     length 2.24923   
     axis 0 0 0   XYZ
    dof rx ry rz
    limits (-20.0 45.0)
           (-30.0 30.0)
           (-30.0 30.0)
  end
  begin
     id 14 
     name lowerneck
     direction 0.0274184 0.991181 0.12965   
     length 1.70911   
     axis 0 0 0   XYZ
    dof rx ry rz
    limits (-20.0 45.0)
           (-30.0 30.0)
           (-30.0 30.0)
  end
  begin
     id 15 
     name upperneck
     direction 0.0015627 0.999959 -0.00893559   
     length 1.69312   
     axis 0 0 0   XYZ
    dof rx ry rz
    limits (-20.0 45.0)
           (-30.0 30.0)
           (-30.0 30.0)
  end
  begin
     id 16
     name head
     direction -0.00230242 0.999856 -0.0168327  
     length 1.80241  
     axis 0 0 0   XYZ
    dof rx ry rz
    limits (-20.0 45.0)
           (-30.0 30.0)
           (-30.0 30.0)
  end
  begin
     id 17 
     name lclavicle
     direction 0.955523 0.290741 -0.0494489  
     length 3.84275  
     axis 0 0 0   XYZ
    dof ry rz
    limits (-20.0 10.0)
           (0.0 20.0)
  end
  begin
     id 18 
     name lhumerus
     direction 1 -4.48967e-011 -3.18382e-028   
     length 5.17714   
     axis 180 -30 -90   XYZ
    dof rx ry rz
    limits (-60.0 90.0)
           (-90.0 90.0)
           (-90.0 90.0)
  end
  begin
     id 19
     name lradius
     direction 1 -4.48968e-011 -2.22911e-027   
     length 3.43679   
     axis 180 -30 -90   XYZ
    dof rx
    limits (-10.0 170.0)
  end
  begin
     id 20
     name lwrist
     direction 1 -4.48951e-011 -6.32245e-027   
     length 1.7184   
     axis 3.57107e-015 90 90   XYZ
    dof ry
    limits (-180.0 0.0)
 end
  begin
     id 21 
     name lhand
     direction 1 -4.48924e-011 -1.26431e-026   
     length 0.573117   
     axis 8.06912e-015 90 90   XYZ
    dof rx rz
    limits (-90.0 90.0)
           (-45.0 45.0)
  end
  begin
     id 22 
     name lfingers
     direction 1 -4.49001e-011 -2.52965e-026   
     length 0.462062   
     axis 1.61381e-014 90 90   XYZ
    dof rx
    limits (0.0 90.0)
  end
  begin
     id 23
     name lthumb
     direction 0.707107 -6.35008e-011 0.707107   
     length 0.663431   
     axis -90 45 -1.62303e-014   XYZ
    dof rx rz
    limits (-45.0 45.0)
           (-45.0 45.0)
  end
  begin
     id 24 
     name rclavicle
     direction -0.963917 0.256881 -0.0698287   
     length 3.73057  
     axis 0 0 0   XYZ 
    dof ry rz
    limits (-10.0 20.0)
           (-20.0 0.0)
  end
  begin
     id 25 
     name rhumerus
     direction -1 -4.48962e-011 -2.73982e-027  
     length 5.23908   
     axis 180 30 90   XYZ
    dof rx ry rz
    limits (-90.0 60.0)
           (-90.0 90.0)
           (-90.0 90.0)
  end
  begin
     id 26 
     name rradius
     direction -1 -4.48968e-011 -4.33218e-027   
     length 3.46485   
     axis 180 30 90   XYZ
    dof rx
    limits (-10.0 170.0)
  end
  begin
     id 27 
     name rwrist
     direction -1 -4.48989e-011 -6.32372e-027   
     length 1.73243   
     axis 3.57107e-015 -90 -90   XYZ
    dof ry
    limits (-180.0 0.0)
  end
  begin
     id 28
     name rhand
     direction -1 -4.48948e-011 -1.26448e-026   
     length 0.608752   
     axis 8.06912e-015 -90 -90   XYZ
    dof rx rz
    limits (-90.0 90.0)
           (-45.0 45.0)
  end
  begin
     id 29
     name rfingers
     direction -1 -4.48962e-011 -2.52913e-026   
     length 0.490792   
     axis 1.61381e-014 -90 -90   XYZ
    dof rx
    limits (0.0 90.0)
  end
  begin
     id 30
     name rthumb
     direction -0.707107 -6.34878e-011 0.707107   
     length 0.704682   
     axis -90 -45 1.62303e-014   XYZ
    dof rx rz
    limits (-45.0 45.0)
           (-45.0 45.0)
  end
:hierarchy
  begin
    root lhipjoint rhipjoint lowerback
    lhipjoint lfemur
    lfemur ltibia
    ltibia lfoot
    lfoot ltoes
    rhipjoint rfemur
    rfemur rtibia
    rtibia rfoot
    rfoot rtoes
    lowerback upperback
    upperback thorax
    thorax lowerneck lclavicle rclavicle
    lowerneck upperneck
    upperneck head
    lclavicle lhumerus
    lhumerus lradius
    lradius lwrist
    lwrist lhand lthumb
    lhand lfingers
    rclavicle rhumerus
    rhumerus rradius
    rradius rwrist
    rwrist rhand rthumb
    rhand rfingers
  end

#!OML:ASF G:\JayActor3\Patient Classification 1\Patient 1\Session 6\male.ASF
:FULLY-SPECIFIED
:DEGREES
312
root 37.763 15.708 7.55411 166.854 -45.4907 -163.035
lowerback -2.2719 2.73186 15.9377
upperback -2.05876 3.27672 0.250911
thorax -0.0414673 1.45738 -8.57236
lowerneck -2.24222 3.4856 2.16521
upperneck 0.481135 4.4895 3.92995
head 0.470086 2.25418 0.889349
rclavicle 1.227e-013 1.43125e-014
rhumerus -26.6712 6.87744 -91.0734
rradius 42.9841
rwrist -0.798232
rhand 1.73812 -10.8411
rfingers 7.12502
rthumb 27.2541 -38.8918
lclavicle 1.227e-013 1.43125e-014
lhumerus -48.5097 15.1611 71.9314
lradius 20.0133
lwrist 7.41367
lhand -6.73375 13.8973
lfingers 7.12502
lthumb 19.1269 42.9768
rfemur 29.1461 -1.68192 41.1052
rtibia 9.54166e-015
rfoot -10.9271 -3.64431
rtoes -5.50965
lfemur -31.1604 6.92747 -14.7228
ltibia 36.7441
lfoot -11.9371 -3.72179
ltoes -10.5748
313
root 37.6548 15.7205 7.449 167.29 -45.4188 -163.604
lowerback -2.56869 2.80636 15.7306
upperback -2.08456 3.33587 0.0185648
thorax 0.117249 1.50283 -8.69201
lowerneck -2.32058 3.59434 2.1906
upperneck 0.816835 4.61158 4.14535
head 0.581301 2.32373 0.959837
rclavicle -3.33958e-014 1.66979e-014
rhumerus -27.0707 6.52976 -91.5452
rradius 42.7935
rwrist -0.619578
rhand 1.64359 -10.8358
rfingers 7.12502
rthumb 27.1637 -38.9007
lclavicle -3.33958e-014 1.66979e-014
lhumerus -48.5397 15.6051 71.2717
lradius 19.6357
lwrist 7.13843
lhand -6.81705 13.9827
lfingers 7.12502
lthumb 19.0468 43.0701
rfemur 29.65 -1.5896 40.611
rtibia 2.54444e-014
rfoot -10.1326 -3.68247
rtoes -6.17272
lfemur -30.6787 7.30805 -15.0873
ltibia 36.9076
lfoot -11.8158 -4.26339
ltoes -9.88012
314
root 37.5444 15.7339 7.34438 167.733 -45.3082 -164.169
lowerback -2.86367 2.89303 15.5603
upperback -2.12563 3.41235 -0.212943
thorax 0.264954 1.55404 -8.83024
lowerneck -2.38131 3.69829 2.22829
upperneck 1.15736 4.72659 4.33046
head 0.692425 2.39002 1.01927
rclavicle 7.05686e-015 -2.06736e-014
rhumerus -27.526 6.18177 -92.0121
rradius 42.5868
rwrist -0.44065
rhand 1.56282 -10.8373
rfingers 7.12502
rthumb 27.0864 -38.9143
lclavicle 7.05686e-015 -2.06736e-014
lhumerus -48.5767 16.0527 70.6104
lradius 19.3077
lwrist 7.00138
lhand -7.00574 14.0517
lfingers 7.12502
lthumb 18.8653 43.1568
rfemur 30.1387 -1.45412 40.1091
rtibia -9.22361e-014
rfoot -9.26078 -3.75296
rtoes -6.81007
lfemur -30.1615 7.64271 -15.4343
ltibia 37.0361
lfoot -11.8167 -4.68582
ltoes -9.0327
315
root 37.4329 15.7477 7.24066 168.18 -45.1747 -164.731
lowerback -3.1331 2.98241 15.4077
upperback -2.18934 3.49832 -0.438206
thorax 0.377172 1.60502 -8.97234
lowerneck -2.41321 3.80039 2.27218
upperneck 1.48836 4.83994 4.48847
head 0.796856 2.45519 1.06902
rclavicle -1.15295e-014 4.77083e-015
rhumerus -28.0366 5.85119 -92.4682
rradius 42.3651
rwrist -0.273159
rhand 1.49871 -10.8512
rfingers 7.12502
rthumb 27.0251 -38.9377
lclavicle -1.15295e-014 4.77083e-015
lhumerus -48.6384 16.4965 69.9584
lradius 19.046
lwrist 6.98847
lhand -7.26097 14.0888
lfingers 7.12502
lthumb 18.6198 43.2177
rfemur 30.6097 -1.29122 39.5958
rtibia 1.59028e-014
rfoot -8.30418 -3.83959
rtoes -7.27794
lfemur -29.6209 7.98136 -15.7768
ltibia 37.133
lfoot -11.9176 -5.05117
ltoes -8.01845
316
root 37.3215 15.7611 7.13813 168.62 -45.0284 -165.287
lowerback -3.35131 3.06618 15.2584
upperback -2.27854 3.58735 -0.652118
thorax 0.433698 1.65105 -9.10658
lowerneck -2.41611 3.90025 2.3146
upperneck 1.81184 4.95157 4.62414
head 0.894846 2.51915 1.1117
rclavicle 2.06736e-014 1.90833e-014
rhumerus -28.5985 5.5508 -92.9101
rradius 42.1281
rwrist -0.130098
rhand 1.44248 -10.8794
rfingers 7.12502
rthumb 26.9713 -38.9742
lclavicle 2.06736e-014 1.90833e-014
lhumerus -48.7267 16.9415 69.3114
lradius 18.8445
lwrist 7.07558
lhand -7.53667 14.0868
lfingers 7.12502
lthumb 18.3546 43.2409
rfemur 31.0669 -1.11497 39.0752
rtibia 1.59028e-014
rfoot -7.26354 -3.95472
rtoes -7.52629
lfemur -29.0612 8.36552 -16.1175
ltibia 37.2055
lfoot -12.0973 -5.41031
ltoes -6.87995
317
root 37.2114 15.7736 7.03692 169.046 -44.8703 -165.837
lowerback -3.50462 3.13985 15.0982
upperback -2.38986 3.67547 -0.850582
thorax 0.428402 1.69012 -9.22153
lowerneck -2.39085 4.00177 2.35481
upperneck 2.12108 5.06712 4.74115
head 0.984183 2.58446 1.14841
rclavicle -4.99943e-014 -4.6118e-014
rhumerus -29.1951 5.29993 -93.3369
rradius 41.8701
rwrist -0.0164813
rhand 1.38657 -10.9371
rfingers 7.12502
rthumb 26.9178 -39.0402
lclavicle -4.99943e-014 -4.6118e-014
lhumerus -48.8396 17.3838 68.6768
lradius 18.7041
lwrist 7.22665
lhand -7.79399 14.0573
lfingers 7.12502
lthumb 18.107 43.2345
rfemur 31.5159 -0.929183 38.5488
rtibia -4.13472e-014
rfoot -6.13815 -4.10809
rtoes -7.52053
lfemur -28.483 8.83725 -16.4579
ltibia 37.258
lfoot -12.3431 -5.80326
ltoes -5.68454
318
root 37.1032 15.7844 6.93711 169.444 -44.7068 -166.376
lowerback -3.59282 3.19905 14.9247
upperback -2.51185 3.75581 -1.03207
thorax 0.371329 1.72054 -9.31448
lowerneck -2.35524 4.10624 2.38499
upperneck 2.42124 5.18742 4.85022
head 1.06899 2.65181 1.18427
rclavicle -2.23633e-014 -8.74653e-015
rhumerus -29.8052 5.10816 -93.7489
rradius 41.589
rwrist 0.0670699
rhand 1.31645 -11.0318
rfingers 7.12502
rthumb 26.8507 -39.1452
lclavicle -2.23633e-014 -8.74653e-015
lhumerus -48.9562 17.8356 68.0498
lradius 18.6092
lwrist 7.38858
lhand -7.99741 14.0516
lfingers 7.12502
lthumb 17.9113 43.2468
rfemur 31.9605 -0.744868 38.0251
rtibia -2.22639e-014
rfoot -4.92543 -4.32663
rtoes -7.27299
lfemur -27.8857 9.40836 -16.7914
ltibia 37.2961
lfoot -12.6422 -6.24418
ltoes -4.52605
